<?xml version="1.0" encoding="UTF-8" standalone="no"?>
<!DOCTYPE svg PUBLIC "-//W3C//DTD SVG 1.1//EN" "http://www.w3.org/Graphics/SVG/1.1/DTD/svg11.dtd">
<svg  height='90' width='500' xmlns="http://www.w3.org/2000/svg" xmlns:xlink="http://www.w3.org/1999/xlink">
<rect height='90' width='500' style='fill:#FDF8E4;' />
<text
	style="font-style:normal;font-variant:normal;font-weight:normal;font-stretch:normal;font-size:14px;line-height:125%;font-family:'Liberation Serif';-inkscape-font-specification:'Liberation Serif';text-align:start;letter-spacing:0px;word-spacing:0px;writing-mode:lr-tb;text-anchor:start;fill:#00ff00;fill-opacity:1;stroke:none"
	xml:space="preserve" y="75.78183" x="57.818336">
	<tspan y="75" x="72"  style="text-align:start;text-anchor:start;fill:#352C2C">Frè  -  re     Jac - ques,</tspan>
	<tspan y="75" x="215" style="text-align:start;text-anchor:start;fill:#352C2C">Frè  -  re     Jac - ques,</tspan>
	<tspan y="75" x="362" style="text-align:start;text-anchor:start;fill:#352C2C">dor - mez  vous?</tspan>
</text>
<text
	style="font-style:normal;font-variant:normal;font-weight:normal;font-stretch:normal;font-size:22px;line-height:125%;font-family:'Liberation Serif';-inkscape-font-specification:'Liberation Serif';text-align:center;letter-spacing:0px;word-spacing:0px;writing-mode:lr-tb;text-anchor:middle;fill:#00ff00;fill-opacity:1;stroke:none;"
	xml:space="preserve" y="25.642975" x="351.95944">
	<tspan y="25.642975" x="351.95944" style="fill:#352C2C;">*</tspan>
</text>
<path style="fill:none;stroke:#352C2C;stroke-width:0.8;" d="m 14.439296,23.962634 458.561844,0" />
<path style="fill:none;stroke:#352C2C;stroke-width:0.8;" d="m 14.439296,30.213022 458.561844,0" />
<path style="fill:none;stroke:#352C2C;stroke-width:0.8;" d="m 14.439296,36.463422 458.561844,0" />
<path style="fill:none;stroke:#352C2C;stroke-width:0.8;" d="m 14.439296,42.713822 458.561844,0" />
<path style="fill:none;stroke:#352C2C;stroke-width:0.8;" d="m 14.439296,48.964209 458.561844,0" />
<path style="fill:none;stroke:#352C2C;stroke-width:0.8;" d="m 351.94478,23.962634 0,25.001575" />
<path style="fill:none;stroke:#352C2C;stroke-width:0.8;" d="m 212.00111,23.962634 0,25.001575" />
<path style="fill:#352C2C;stroke:none;" d="m 54.573681,35.779648 c -0.422789,0 -0.845569,-0.154475 -1.268341,-0.463438 -0.406527,-0.325213 -0.609787,-0.788637 -0.60978,-1.390288 -7e-6,-0.504087 0.162601,-0.951262 0.487823,-1.341524 0.341469,-0.390251 0.780511,-0.585375 1.317126,-0.585388 0.146337,1.3e-5 0.260162,0.0087 0.341476,0.02437 -0.748005,-0.97565 -1.748043,-1.4716 -3.000117,-1.487863 -0.52035,0 -0.959391,0.08125 -1.317123,0.243913 -0.357741,0.14635 -0.634175,0.33335 -0.8293,0.560988 -0.178873,0.227662 -0.32522,0.569137 -0.439041,1.024437 -0.113825,0.439038 -0.187003,0.861825 -0.219522,1.268338 -0.01626,0.390262 -0.02439,0.910612 -0.02439,1.561037 l 0,1.268338 0,1.26835 c -3e-6,0.650425 0.0081,1.1789 0.02439,1.585425 0.03252,0.406512 0.105688,0.829287 0.219522,1.268337 0.113825,0.439038 0.260168,0.772388 0.439041,1.000038 0.195125,0.22765 0.471559,0.422775 0.8293,0.585387 0.357732,0.1626 0.796773,0.243912 1.317123,0.243912 0.959381,0 1.788679,-0.365874 2.487902,-1.097599 0.715465,-0.715475 1.203288,-1.609825 1.463471,-2.683026 0.04877,-0.162612 0.146336,-0.243925 0.292694,-0.243912 0.21138,-1.2e-5 0.317075,0.0975 0.317086,0.292688 -1.1e-5,0.130087 -0.04879,0.341475 -0.146348,0.634175 -0.09757,0.30895 -0.268313,0.674812 -0.512215,1.0976 -0.227661,0.439037 -0.512225,0.853687 -0.853691,1.24395 -0.325225,0.39025 -0.756135,0.715475 -1.292732,0.97565 -0.536614,0.260162 -1.122003,0.39025 -1.756167,0.390262 -0.796783,-1.2e-5 -1.544778,-0.113875 -2.243988,-0.341487 -0.699218,-0.211388 -1.357779,-0.561 -1.975687,-1.048813 -0.617911,-0.487825 -1.113865,-1.178912 -1.487861,-2.07325 -0.357737,-0.878087 -0.536606,-1.91065 -0.536606,-3.097687 0,-1.96755 0.528475,-3.54485 1.585426,-4.731888 1.07321,-1.203287 2.626114,-1.804937 4.658716,-1.80495 1.317117,1.3e-5 2.374068,0.463438 3.170855,1.3903 0.813029,0.910613 1.219548,1.80495 1.219559,2.683038 -1.1e-5,0.504075 -0.162619,0.926862 -0.487824,1.268337 -0.308965,0.341475 -0.699223,0.512213 -1.170777,0.512213" />
<path style="fill:#352C2C;stroke:none;" d="m 38.155135,35.438172 -0.02439,1.6586 0,0.2683 c 0,0.617913 0.03252,1.16265 0.09756,1.634213 0.487822,-0.422788 0.86182,-0.764263 1.121995,-1.024425 0.276431,-0.260175 0.544734,-0.617912 0.804908,-1.073213 0.26017,-0.455312 0.390257,-0.910612 0.390259,-1.365912 -2e-6,-0.4553 -0.09756,-0.845562 -0.292694,-1.170775 -0.195132,-0.325212 -0.455304,-0.487825 -0.780517,-0.487825 -0.390261,0 -0.707346,0.154475 -0.951256,0.463438 -0.227653,0.292687 -0.349609,0.658562 -0.365869,1.0976 M 37.106316,39.90176 36.78923,25.047523 c 0.211391,-0.130075 0.439042,-0.195113 0.682954,-0.195125 0.227651,1.2e-5 0.455301,0.065 0.682952,0.195125 l -0.195129,8.610087 c 0.666692,-0.569125 1.430948,-0.853687 2.292771,-0.853687 0.634168,0 1.162643,0.260175 1.585427,0.780512 0.422776,0.504088 0.634166,1.097613 0.634171,1.780563 -5e-6,0.471562 -0.138221,0.918737 -0.41465,1.341512 -0.260177,0.422788 -0.53661,0.756125 -0.8293,1.000038 -0.292697,0.260175 -0.707347,0.585387 -1.243951,0.97565 -0.536608,0.406512 -0.934996,0.707337 -1.195168,0.902475 -0.0813,0.065 -0.187,0.187 -0.317085,0.365862 -0.130087,0.195125 -0.260173,0.341475 -0.390258,0.43905 -0.130088,0.0975 -0.268304,0.146338 -0.414652,0.14635 -0.162607,-1.2e-5 -0.292693,-0.065 -0.390258,-0.195137 -0.113825,-0.113875 -0.170738,-0.260175 -0.170738,-0.439038" />
<path style="fill:#352C2C;stroke:none;" d="m 33.491936,42.786997 c -1.5e-5,1.447213 -0.414665,2.71555 -1.24395,3.805025 -0.829314,1.089463 -1.845612,1.837463 -3.048897,2.243988 0.01625,0.30895 0.02437,0.796775 0.02439,1.463475 -1.3e-5,0.84555 -0.04066,1.829325 -0.121962,2.951325 -0.146359,1.59355 -0.691096,2.95945 -1.63421,4.097725 -0.926874,1.1545 -2.089519,1.73175 -3.487939,1.731775 -1.447215,-2.5e-5 -2.691165,-0.479713 -3.731851,-1.439087 -1.040693,-0.9594 -1.561038,-2.1383 -1.561037,-3.536713 -1e-6,-0.715488 0.276433,-1.3334 0.8293,-1.853737 0.569125,-0.504088 1.227688,-0.756138 1.975687,-0.756125 0.666687,-1.3e-5 1.227684,0.252037 1.682992,0.756125 0.455295,0.520337 0.682946,1.13825 0.682952,1.853737 -6e-6,0.650412 -0.235787,1.203275 -0.707343,1.6586 -0.455308,0.47155 -1.008174,0.707325 -1.658602,0.707337 -0.243915,-1.2e-5 -0.495957,-0.04875 -0.756126,-0.14635 0.357734,0.520338 0.821165,0.934988 1.390298,1.243951 0.569122,0.30895 1.187031,0.463424 1.85373,0.463437 1.121986,-1.2e-5 2.048851,-0.487837 2.780595,-1.463475 0.747986,-0.9594 1.178896,-2.105775 1.292732,-3.43915 0.0813,-1.056962 0.12195,-2.008212 0.121963,-2.853775 -1.2e-5,-0.52035 -0.0081,-0.910612 -0.02439,-1.170775 -0.699223,0.113875 -1.317133,0.170738 -1.85373,0.170738 -2.406603,0 -4.463591,-0.86995 -6.17097,-2.60985 -1.707383,-1.72365 -2.561073,-3.805025 -2.561073,-6.24415 0,-0.569125 0.05691,-1.146375 0.170737,-1.731775 0.113825,-0.585375 0.227651,-1.089463 0.341476,-1.51225 0.113825,-0.422775 0.333347,-0.95125 0.658563,-1.585425 0.341475,-0.634163 0.577256,-1.0976 0.707345,-1.3903 0.146345,-0.292688 0.47969,-0.788638 1.000037,-1.487863 0.520343,-0.715462 0.837428,-1.146375 0.951257,-1.292737 0.113825,-0.162588 0.47969,-0.642288 1.097603,-1.439075 0.634165,-0.796763 0.983772,-1.243938 1.048821,-1.341513 -0.601654,-1.83745 -1.040696,-3.406625 -1.317123,-4.7075 -0.260178,-1.3171 -0.390264,-2.7887 -0.39026,-4.4148 -4e-6,-0.910587 0.113825,-1.804925 0.341477,-2.683037 0.243907,-0.87805 0.5366,-1.62605 0.878083,-2.243988 0.34147,-0.617875 0.691077,-1.162612 1.048821,-1.634212 0.373991,-0.487788 0.699206,-0.845525 0.975646,-1.073213 0.276427,-0.243875 0.463425,-0.365837 0.560998,-0.365862 0.260165,2.5e-5 0.715466,0.479725 1.365906,1.439075 0.650423,0.943162 1.268331,2.178975 1.85373,3.707462 0.601638,1.528538 0.902463,2.926963 0.902474,4.195288 -1.1e-5,1.7074 -0.38214,3.317212 -1.146385,4.82945 -0.764268,1.496012 -1.87,3.154612 -3.317201,4.9758 0.682945,2.065137 1.252071,3.9026 1.707382,5.512412 1.918763,0.01625 3.479796,0.682963 4.683108,2.000075 1.203283,1.317125 1.804932,2.853775 1.804947,4.609938 m -4.34163,5.000187 c 0.764245,-0.2927 1.406545,-0.813037 1.926904,-1.561037 0.536591,-0.731738 0.804894,-1.577288 0.804909,-2.536675 -1.5e-5,-1.154525 -0.382143,-2.195213 -1.146387,-3.122075 -0.764268,-0.926863 -1.772437,-1.487863 -3.024506,-1.682988 0.780506,3.203375 1.2602,6.170963 1.43908,8.902775 m -4.048937,-1.829338 c -0.130094,0 -0.374005,-0.09762 -0.731735,-0.292687 -0.341483,-0.195137 -0.723612,-0.471575 -1.146387,-0.8293 -0.422785,-0.341488 -0.796782,-0.845563 -1.121993,-1.512262 -0.30896,-0.650426 -0.463437,-1.357776 -0.463433,-2.122026 -4e-6,-1.187037 0.382124,-2.252124 1.146385,-3.195249 0.764251,-0.959376 1.804941,-1.544763 3.122073,-1.756163 -0.390268,-1.349638 -0.853699,-2.87815 -1.390298,-4.58555 -0.845567,1.10575 -1.495999,1.967575 -1.951295,2.585475 -0.439046,0.60165 -0.959391,1.398425 -1.561036,2.390337 -0.585391,0.975651 -1.008171,1.9269 -1.268341,2.853763 -0.243914,0.926862 -0.36587,1.894387 -0.365868,2.90255 -2e-6,1.561038 0.715471,2.918812 2.146424,4.073325 1.447205,1.154512 3.040761,1.731775 4.780672,1.731775 0.634162,0 1.23581,-0.04875 1.804948,-0.14635 -0.178879,-2.845638 -0.674833,-5.918925 -1.487863,-9.219863 -1.024437,0.065 -1.845606,0.390263 -2.46351,0.97565 -0.601655,0.585388 -0.902478,1.276475 -0.902473,2.07325 -5e-6,1.333388 0.73986,2.374075 2.219598,3.122075 0.130078,0.130075 0.195122,0.260163 0.195129,0.39025 -7e-6,0.14635 -0.05692,0.276438 -0.170737,0.390263 -0.113838,0.113875 -0.24392,0.170737 -0.39026,0.170737 M 26.97949,15.151785 c -1.203306,0.764287 -2.154561,1.77245 -2.853769,3.0245 -0.682959,1.252112 -1.024435,2.593625 -1.024429,4.02455 -6e-6,1.073237 0.398383,2.886312 1.195168,5.439237 1.170769,-1.5285 2.073242,-2.991975 2.707421,-4.390412 0.634161,-1.398413 0.951246,-2.861875 0.951256,-4.390413 -10e-6,-0.813025 -0.06505,-1.455325 -0.195128,-1.926912 -0.113838,-0.471538 -0.374009,-1.06505 -0.780519,-1.78055" />
<path style="fill:#352C2C;stroke:none;" d="m 456.61432,39.307835 c 0,-0.657744 0.25298,-1.011913 0.91072,-1.011913 0.86013,0 2.15032,0.379467 3.28872,0.936019 l -3.4658,-4.148841 c -0.17709,-0.202382 -0.25298,-0.430063 -0.25298,-0.632445 0,-0.834828 1.23959,-1.61906 2.17561,-2.42859 0.65774,-0.556552 0.98662,-1.366081 0.98662,-2.150314 0,-0.607147 -0.20239,-1.188997 -0.60715,-1.694953 l -0.98662,-1.163699 c -0.0506,-0.07589 -0.0759,-0.151787 -0.0759,-0.22768 0,-0.177085 0.17708,-0.35417 0.35417,-0.35417 0.0759,0 0.17708,0.0253 0.25298,0.126489 l 3.84526,4.604202 c 0.17709,0.202382 0.25298,0.430062 0.25298,0.632445 0,0.834828 -1.23959,1.61906 -2.17561,2.42859 -0.65774,0.556552 -0.98661,1.366081 -0.98661,2.150314 0,0.607147 0.20238,1.188997 0.60714,1.694953 l 2.20091,2.630972 c 0.0506,0.07589 0.0759,0.126489 0.0759,0.202383 0,0.177084 -0.17709,0.354169 -0.35417,0.354169 -0.0759,0 -0.17709,-0.0253 -0.25298,-0.126489 -0.48066,-0.556552 -1.66966,-1.087806 -2.58038,-1.087806 -1.01191,0 -1.31548,0.733637 -1.31548,1.770847 0,0.885423 0.27827,1.897335 0.70833,2.428589 0.1012,0.12649 0,0.278276 -0.12648,0.278276 -0.0506,0 -0.1012,0 -0.12649,-0.0506 -1.1637,-1.39138 -2.3527,-3.794672 -2.3527,-5.160753 z" />
<!--
C
T 0.00 0.00
C
T 33.445 -3.125
C
T 33.445 -3.125
T 33.445 -3.125
C
T 100.335 0.00
C
T 142.279 0.00
T 0.00 0.00
C
T 142.279 0.00
T 33.445 -3.125
C
T 142.279 0.00
T 33.445 -3.125
T 33.445 -3.125
C
T 142.279 0.00
T 100.335 0.00
C
T 291.00 -3.125
T 0.0 -3.125
C
R 180
T 485.0 82.500
C
R 180
T 485.0 82.500
T 30.445 -3.125
-->
<polygon points='85.543,44.665 85.543,24.039 ' style='stroke:#352C2C;stroke-width:0.8;stroke-linejoin:round;stroke-cap:round;' />
<polygon points='82.824,42.433 84.095,42.533 85.187,43.034 85.706,43.785 85.788,45.066 85.291,46.469 84.121,47.782 82.408,48.765 80.831,49.212 79.339,49.068 78.545,48.600 77.916,47.738 77.822,46.579 78.375,45.231 79.632,43.797 81.186,42.826 ' style='fill:#352C2C;stroke:#352C2C;stroke-width:0.8;stroke-linejoin:round;stroke-cap:round;' />
</svg>
