<?xml version="1.0" encoding="UTF-8" standalone="no"?>
<!DOCTYPE svg PUBLIC "-//W3C//DTD SVG 1.1//EN" "http://www.w3.org/Graphics/SVG/1.1/DTD/svg11.dtd">
<svg  height='400' width='700' xmlns='http://www.w3.org/2000/svg' >
<rect height='400' width='700' style='fill:#3B653D;' />
<path style="fill:#FAFAFA;stroke:none;" d="m 138.95033,157.48968 c -1.14,-4.68 -4.38,-8.28 -8.88,-8.28 -8.7,0 -9.42,11.64 -10.08,23.34 -6.78,-1.2 -10.98,-4.56 -12.06,-8.88 -0.42,-1.68 -0.72,-8.28 1.86,-12.42 0.36,-0.54 0.3,-0.78 0.3,-0.78 -0.06,-0.24 -0.3,-0.6 -0.9,-0.6 -1.68,0 -4.08,8.7 -2.64,14.46 1.38,5.64 6.42,10.02 13.26,11.52 l -0.72,10.08 c 0,0.78 -0.06,0.9 0,1.2 0.36,1.32 1.56,1.68 2.16,1.68 0.3,0 1.62,-0.18 1.86,-1.56 0.06,-0.48 -0.12,-2.46 -0.66,-10.98 0.54,0.06 1.02,0.12 2.04,0.12 9.96,0 16.86,-9.42 14.46,-18.9 z" />
<path style="fill:#3B653D;stroke:none;" d="m 137.63033,158.80968 c 1.68,6.78 -4.26,14.1 -13.5,14.1 -0.48,0 -0.6,0 -1.08,-0.06 -0.72,0 -0.78,-0.06 -0.84,-0.24 l -0.42,-6.48 c -0.06,-7.68 3.18,-13.44 8.52,-13.44 4.14,0 6.6,3.24 7.32,6.12 z" />
<path style="fill:#FAFAFA;stroke:none;" d="m 225.15158,167.32968 c 0,-0.66 -0.54,-1.2 -1.2,-1.2 l -37.56,0 c -0.66,0 -1.2,0.54 -1.2,1.2 0,0.66 0.54,1.2 1.2,1.2 l 37.56,0 c 0.66,0 1.2,-0.54 1.2,-1.2 z" />
<path style="fill:#FAFAFA;stroke:none;" d="m 225.03158,148.48968 c 0,-0.48 -0.36,-0.78 -0.72,-0.78 -0.42,0 -0.72,0.3 -0.72,0.66 -0.54,5.22 -3,7.68 -7.08,8.88 -0.6,0.18 -1.2,0.24 -1.74,0.24 -3.12,0 -6,-2.34 -8.58,-4.56 -3.24,-2.7 -6.9,-5.28 -10.8,-5.28 -0.78,0 -1.62,0.12 -2.46,0.36 -5.04,1.5 -6.96,5.28 -7.62,11.76 0,0.48 0.36,0.78 0.72,0.78 0.42,0 0.72,-0.3 0.72,-0.66 0.54,-5.22 3,-7.68 7.08,-8.88 0.6,-0.18 1.2,-0.24 1.74,-0.24 3.12,0 6,2.34 8.58,4.56 3.24,2.7 6.9,5.28 10.8,5.28 0.78,0 1.62,-0.12 2.46,-0.36 5.04,-1.5 6.96,-5.28 7.62,-11.76 z" />
<!--
C
C
S 0.61803 0.61803
T 230 110
C
S 0.61803 0.61803
T 230 110
S 0.61803 0.61803
T 230 110
C
S 0.61803 0.61803
T 230 110
S 0.61803 0.61803
T 230 110
S 0.61803 0.61803
T 230 110
C
S 0.61803 0.61803
T 230 110
S 0.61803 0.61803
T 230 110
S 0.61803 0.61803
T 230 110
S 0.61803 0.61803
T 230 110
C
S 0.61803 0.61803
T 230 110
S 0.61803 0.61803
T 230 110
S 0.61803 0.61803
T 230 110
S 0.61803 0.61803
T 230 110
S 0.61803 0.61803
T 230 110
C
S 0.61803 0.61803
T 230 110
S 0.61803 0.61803
T 230 110
S 0.61803 0.61803
T 230 110
S 0.61803 0.61803
T 230 110
S 0.61803 0.61803
T 230 110
S 0.61803 0.61803
T 230 110
C
S 0.61803 0.61803
T 230 110
S 0.61803 0.61803
T 230 110
S 0.61803 0.61803
T 230 110
S 0.61803 0.61803
T 230 110
S 0.61803 0.61803
T 230 110
S 0.61803 0.61803
T 230 110
S 0.61803 0.61803
T 230 110
C
S 0.61803 0.61803
T 230 110
S 0.61803 0.61803
T 230 110
S 0.61803 0.61803
T 230 110
S 0.61803 0.61803
T 230 110
S 0.61803 0.61803
T 230 110
S 0.61803 0.61803
T 230 110
S 0.61803 0.61803
T 230 110
S 0.61803 0.61803
T 230 110
-->
<polygon points='293.456,175.730 293.456,173.870 291.536,173.870 285.956,170.990 285.956,137.330 284.576,135.770 273.656,139.610 273.656,141.470 281.516,139.910 281.516,170.990 275.936,173.870 274.016,173.870 274.016,175.730 283.736,175.550 293.456,175.730 ' style='fill:#FAFAFA;stroke:none;' />
<polygon points='361.558,160.730 360.358,159.530 342.778,159.530 342.778,141.950 341.578,140.750 340.378,141.950 340.378,159.530 322.798,159.530 321.598,160.730 322.798,161.930 340.378,161.930 340.378,179.510 341.578,180.710 342.778,179.510 342.778,161.930 360.358,161.930 361.558,160.730 ' style='fill:#FAFAFA;stroke:none;' />
<polygon points='395.793,160.092 394.592,161.291 395.793,162.491 601.351,162.491 602.553,161.291 601.351,160.092 395.793,160.092 ' style='fill:#FAFAFA;stroke:none;' />
<polygon points='506.355,144.999 506.355,143.536 504.846,143.536 500.459,141.272 500.459,114.810 499.374,113.584 490.789,116.603 490.789,118.065 496.968,116.839 496.968,141.272 492.582,143.536 491.072,143.536 491.072,144.999 498.714,144.857 506.355,144.999 ' style='fill:#FAFAFA;stroke:none;' />
<polygon points='486.509,209.000 488.636,209.000 488.636,210.360 486.509,210.360 ' style='fill:#FAFAFA;stroke:none;' />
<polygon points='498.509,209.000 500.636,209.000 500.636,210.360 498.509,210.360 ' style='fill:#FAFAFA;stroke:none;' />
<polygon points='510.509,209.000 512.636,209.000 512.636,210.360 510.509,210.360 ' style='fill:#FAFAFA;stroke:none;' />
</svg>
