<?xml version="1.0" encoding="UTF-8" standalone="no"?>
<!DOCTYPE svg PUBLIC "-//W3C//DTD SVG 1.1//EN" "http://www.w3.org/Graphics/SVG/1.1/DTD/svg11.dtd">
<svg  height='320' width='320' xmlns='http://www.w3.org/2000/svg' >
<rect height='320' width='320' style='fill:#ffffff' />
<g><path style='fill:#f0f0f0' d="M20.405,121.008l0.459-1.514c21.124,2.323,34.185,4.643,39.186,6.963c6.529,3.129,9.796,8.075,9.796,14.834
c0,5.047-1.736,7.568-5.205,7.568c-2.349,0-7.553-3.33-15.613-9.99C42.7,133.624,33.16,127.668,20.405,121.008z M29.742,243.767
l2.296-0.605c3.162,2.826,5.663,4.238,7.5,4.238c3.774,0,12.346-15.236,25.715-45.713c6.632-16.246,10.868-26.641,12.705-31.182
l1.378,0.757c-0.918,12.01-8.318,38.7-22.195,80.073c-0.918,2.725-1.378,6.206-1.378,10.444c-0.103,4.744-1.633,7.114-4.592,7.114
c-1.225,0-5.816-3.179-13.776-9.536c-5.816-4.641-8.725-8.879-8.725-12.715C28.67,246.038,29.027,245.08,29.742,243.767z
 M30.507,44.568V43.66c2.243-0.402,3.724-0.605,4.439-0.605c11.427,0,22.654,3.231,33.675,9.688
c7.142,4.238,10.715,9.588,10.715,16.045c0,4.442-1.89,6.66-5.664,6.66c-3.573,0-9.543-4.137-17.909-12.412
C49.435,56.881,41.016,50.724,30.507,44.568z M87.754,74.841c6.938,2.826,12.755,4.238,17.45,4.238
c5.205,0,14.235-1.362,27.093-4.087l-0.459-16.802c-0.612-10.898-4.695-19.526-12.245-25.884v-1.211
c3.367-1.412,5.561-2.119,6.582-2.119c1.734,0,6.02,1.566,12.857,4.692c4.999,2.221,7.5,4.995,7.5,8.325
c0,0.809-0.153,1.968-0.459,3.481c-1.021,4.541-1.583,9.134-1.684,13.774l-0.459,13.774c3.877-0.605,10.562-1.916,20.052-3.936
l5.816-1.06c2.143-0.402,4.184-0.856,6.123-1.362c1.531-0.402,2.652-0.605,3.367-0.605c5.205,0,7.807,2.119,7.807,6.357
c0,2.323-2.857,3.734-8.572,4.238c-8.063,0.707-19.542,2.221-34.44,4.541v29.063c13.061-1.412,22.295-3.229,27.706-5.449
c2.143-0.908,3.674-1.362,4.592-1.362c2.855,0,7.348,2.725,13.471,8.174c1.324,1.211,1.988,2.221,1.988,3.027
c0,0.707-0.459,1.816-1.377,3.33c-1.633,2.725-2.807,7.417-3.52,14.077l-3.674,35.269c-1.225,11.201-3.93,16.802-8.113,16.802
c-1.43,0-3.727-2.067-6.889-6.206c-0.512-0.705-1.889-1.06-4.132-1.06c-3.979,0-10.408,0.605-19.286,1.816v32.241
c11.939-1.514,22.551-3.179,31.838-4.995c3.061-0.908,4.947-1.362,5.662-1.362c7.143,0,10.715,2.372,10.715,7.114
c0,2.725-3.061,4.087-9.184,4.087c-9.184,0.102-22.144,1.263-38.879,3.481v42.231c0,14.531-2.042,21.695-6.123,21.494
c-5.001-0.203-7.5-5.752-7.5-16.65c0-4.035,0.356-9.484,1.071-16.348c0.51-5.045,0.663-8.576,0.459-10.596
c0-0.504,0-0.807,0-0.908l-0.153-17.256c-8.165,1.01-19.645,2.625-34.44,4.844c-1.124,0.203-2.296,0.303-3.521,0.303
c-4.186,0-8.216-1.514-12.093-4.541c-3.979-3.229-6.226-6.861-6.735-10.898l1.225-0.908c8.163,4.34,14.082,6.509,17.756,6.509
c10.306,0,22.96-1.311,37.961-3.936V179.89c-11.939,1.615-18.598,2.675-19.976,3.179c-1.377,0.506-3.394,2.625-6.046,6.357
c-0.818,1.111-1.684,1.665-2.602,1.665c-3.98,0-6.482-4.591-7.5-13.774l-3.521-32.544c-2.449-17.052-5.817-28.003-10.103-32.847
l0.918-1.362c1.734-0.402,3.061-0.605,3.979-0.605c1.122,0,2.703,0.355,4.745,1.06c7.347,2.625,13.724,3.936,19.134,3.936
c2.755,0,9.693-0.908,20.817-2.725v-28.76c-4.592,0.908-13.573,2.978-26.94,6.206c-1.124,0.204-2.296,0.303-3.521,0.303
c-3.367,0-7.094-1.866-11.174-5.601c-2.858-2.725-4.286-5.499-4.286-8.325L87.754,74.841z M104.745,144.47
c7.959-0.908,17.45-2.169,28.471-3.784v-21.191c-9.184,1.112-19.593,2.625-31.226,4.541L104.745,144.47z M107.959,176.106
c7.959-1.008,16.326-2.169,25.103-3.481V147.8l-11.786,1.514l-15.766,2.271L107.959,176.106z M144.237,139.172l18.98-2.271
l11.328-1.514l0.459-8.779c0.1-0.908,0.152-2.218,0.152-3.936c0-5.548-1.684-8.325-5.051-8.325c-3.471,0-12.093,1.06-25.869,3.179
V139.172z M144.39,171.111l27.093-3.027c1.225-8.576,1.99-16.852,2.297-24.824c-11.328,0.908-21.124,2.02-29.39,3.33V171.111z
 M256.283,31.853l1.377-0.908c0.918-0.201,1.734-0.303,2.449-0.303c2.242,0,5.357,2.221,9.336,6.66
c5.611,6.055,8.42,10.345,8.42,12.866c0,1.918-2.908,4.34-8.725,7.266c-1.939,1.01-9.084,5.854-21.43,14.531
c-1.43,1.01-7.4,4.896-17.91,11.655c-0.512,0.204-3.725,2.271-9.643,6.206c1.428,1.918,2.143,3.936,2.143,6.055l-0.305,15.591
v9.536c23.365-2.32,44.439-5.802,63.217-10.444c2.346-0.605,4.182-0.908,5.51-0.908c9.59,0,14.389,2.372,14.389,7.114
c0,1.918-5.664,3.33-16.99,4.238c-8.98,0.809-18.166,2.02-27.553,3.633c5.205,4.442,7.807,8.578,7.807,12.412
c0,4.238-0.307,8.174-0.918,11.807c-0.92,5.653-1.072,9.74-0.459,12.261c0.1,0.507,0.152,0.81,0.152,0.908v84.312l0.152,5.298
c0,19.678-1.889,29.517-5.662,29.517c-5.41,0-8.113-5.903-8.113-17.71c0-14.328,0.51-26.993,1.531-37.993
c1.121-13.623,1.428-22.452,0.918-26.489c-0.104-0.705-0.154-1.159-0.154-1.362V153.25c-0.102-14.328-2.447-23.41-7.041-27.246
c-9.082,1.415-17.961,2.777-26.633,4.087c-1.328,44.1-7.094,76.088-17.297,95.967c-9.898,17.66-21.43,31.787-34.594,42.383
l-1.07-1.06c13.162-18.971,22.141-33.703,26.939-44.199c9.184-20.182,13.775-52.624,13.775-97.329
c0-19.576-4.541-34.663-13.623-45.259l0.918-1.514c2.348-1.007,4.184-1.514,5.512-1.514c3.061,0,8.162,3.027,15.307,9.082
c4.691-4.439,7.855-7.417,9.49-8.931c20.715-18.869,31.072-31.231,31.072-37.085C258.578,38.615,257.813,35.689,256.283,31.853z"
/></g>
<polygon points='20.800,275.000 132.800,275.000 132.800,300.000 20.800,300.000 ' style='fill:#000000;' fill-opacity="0.4" />
<polygon points='188.000,275.000 300.000,275.000 300.000,300.000 188.000,300.000 ' style='fill:#000000;' fill-opacity="0.4" />
<polygon points='20.800,225.000 132.800,225.000 132.800,250.000 20.800,250.000 ' style='fill:#000000;' fill-opacity="0.4" />
<polygon points='188.000,225.000 300.000,225.000 300.000,250.000 188.000,250.000 ' style='fill:#000000;' fill-opacity="0.4" />
<polygon points='20.000,175.000 300.000,175.000 300.000,200.000 20.000,200.000 ' style='fill:#000000;' fill-opacity="0.4" />
<polygon points='20.800,125.000 132.800,125.000 132.800,150.000 20.800,150.000 ' style='fill:#000000;' fill-opacity="0.4" />
<polygon points='188.000,125.000 300.000,125.000 300.000,150.000 188.000,150.000 ' style='fill:#000000;' fill-opacity="0.4" />
<polygon points='20.000,75.000 300.000,75.000 300.000,100.000 20.000,100.000 ' style='fill:#000000;' fill-opacity="0.4" />
<polygon points='20.000,25.000 300.000,25.000 300.000,50.000 20.000,50.000 ' style='fill:#000000;' fill-opacity="0.4" />
</svg>
